<?xml version="1.0" encoding="utf-8"?>
<!-- Generator: Adobe Illustrator 22.0.1, SVG Export Plug-In . SVG Version: 6.00 Build 0)  -->
<svg version="1.2" baseProfile="tiny" id="Capa_1" xmlns="http://www.w3.org/2000/svg" xmlns:xlink="http://www.w3.org/1999/xlink"
	 x="0px" y="0px" viewBox="0 0 758.9 131.9" xml:space="preserve">
<g>
	<path fill="#F7F7F8" d="M180.5,58.9v-3.4h5.6l-5.5-16l-0.1,0.2v-6.3h4.5l12.2,33.6c0.7,2.3,1.6,3.8,2.4,4.8
		c0.8,0.9,1.9,1.5,3.1,1.7v2.7h-16.4v-2.7c1.7-0.2,2.9-0.5,3.4-1c0.6-0.4,0.9-1.1,0.9-2c0-0.5,0-1.1-0.2-1.7
		c-0.1-0.6-0.3-1.1-0.5-1.7l-2.9-8.4H180.5z M219,73.4V63.3l2.3,0.3c0.8,3.5,2.1,6.2,3.9,8c1.7,1.8,3.9,2.7,6.5,2.7
		c2,0,3.7-0.6,5-1.9c1.3-1.4,2-3,2-5c0-1.7-0.5-3.3-1.6-4.6c-1-1.4-3.4-3.3-7.1-5.8c-4.6-3-7.5-5.3-8.7-7c-1.2-1.7-1.8-3.7-1.8-6.1
		c0-3.3,1.1-6,3.3-8.1c2.1-2,5-3,8.5-3c1.8,0,3.5,0.3,5.5,0.9c1.9,0.5,3.9,1.4,6.1,2.5v8.7h-2.5c-0.5-3.1-1.4-5.5-2.9-7.1
		c-1.5-1.6-3.6-2.4-6.1-2.4c-2,0-3.6,0.6-4.9,1.7c-1.3,1.1-1.9,2.5-1.9,4.2c0,1,0.2,1.9,0.5,2.7c0.3,0.9,0.9,1.6,1.6,2.3
		c1.1,1,3.3,2.6,6.6,4.8c1.8,1.1,3.2,2.1,4.2,2.7c2.6,1.8,4.5,3.6,5.6,5.2c1.1,1.7,1.7,3.5,1.7,5.6c0,3.7-1.2,6.8-3.7,9.1
		c-2.5,2.3-5.7,3.4-9.8,3.4c-2.2,0-4.3-0.3-6.3-0.9C222.8,75.6,220.9,74.7,219,73.4 M180.5,33.5v6.3l-5.6,15.7h5.6v3.4h-6.7
		l-2.1,7.2c-0.1,0.6-0.3,1.2-0.3,1.7c-0.1,0.5-0.2,1.1-0.2,1.5c0,1.2,0.4,2.2,1,2.8c0.7,0.7,1.8,1.2,3.5,1.5l0,2.7h-13.4v-2.7
		c1.3-0.3,2.4-0.8,3.2-1.7c0.8-0.9,1.7-2.7,2.7-5.4l10.4-29.4c0,0,0-0.1,0.1-0.3c0.3-0.8,0.5-1.3,0.5-1.7c0-0.3-0.1-0.6-0.2-0.8
		c-0.1-0.2-0.2-0.4-0.4-0.7H180.5z M92.2,58.9v-3.4h5.6l-5.5-16l-0.1,0.2v-6.3h4.5l12.1,33.6c0.8,2.3,1.6,3.8,2.5,4.8
		c0.8,0.9,1.9,1.5,3.1,1.7v2.7H98v-2.7c1.7-0.2,2.8-0.5,3.4-1c0.6-0.4,1-1.1,1-2c0-0.5-0.1-1.1-0.2-1.7c-0.1-0.6-0.3-1.1-0.5-1.6
		l-2.9-8.4H92.2z M129.6,33.5H148v2.5c-1.9,0-3.3,0.5-4.3,1.3c-1,0.9-1.5,2.2-1.5,4v33c0,3.6-1.1,6.6-3.2,9
		c-2.1,2.3-4.7,3.5-7.9,3.5c-1.8,0-3.2-0.4-4.2-1.2c-1-0.8-1.5-1.9-1.5-3.2c0-1,0.3-1.7,0.7-2.2c0.5-0.5,1.3-0.7,2.2-0.7
		c0.7,0,1.3,0.2,1.8,0.6c0.6,0.4,1.2,1.1,1.8,2c0,0.1,0.2,0.3,0.3,0.5c0.5,0.8,1,1.2,1.5,1.2c0.5,0,0.9-0.2,1.1-0.7
		c0.3-0.5,0.4-1.5,0.4-2.9v-1.7V41.3c0-2-0.5-3.3-1.3-4.1c-0.8-0.8-2.3-1.2-4.3-1.2V33.5z M57.9,64.3h2.7l-1.1,9.2
		c-2.7,1.2-5.2,2.2-7.6,2.8c-2.4,0.6-4.7,0.9-6.8,0.9c-3.1,0-5.9-0.6-8.4-1.6c-2.5-1.1-4.8-2.7-6.8-4.9c-1.9-2.1-3.4-4.4-4.3-6.8
		c-0.9-2.5-1.4-5.4-1.4-8.6c0-3.1,0.4-5.8,1.2-8.3c0.8-2.5,2-4.7,3.7-6.6c2.1-2.5,4.5-4.4,7.5-5.8c2.9-1.4,6-2,9.3-2
		c2,0,4,0.3,6.2,0.9c2.2,0.6,4.5,1.4,7,2.6l1.1,8.8l-2.6,0.2c-0.9-3.2-2.5-5.6-4.7-7.3c-2.2-1.8-4.9-2.6-8.1-2.6
		c-4.1,0-7.2,1.6-9.5,4.8c-2.3,3.2-3.4,7.7-3.4,13.4c0,6.4,1.2,11.6,3.7,15.3c2.5,3.8,5.8,5.7,10,5.7c3,0,5.5-0.8,7.6-2.5
		C54.9,70.3,56.6,67.7,57.9,64.3 M92.2,33.5v6.3l-5.5,15.7h5.5v3.4h-6.7l-2.1,7.2c-0.2,0.6-0.3,1.2-0.4,1.7c-0.1,0.5-0.2,1-0.2,1.5
		c0,1.2,0.4,2.2,1,2.8c0.7,0.7,1.9,1.2,3.5,1.5v2.7H74.1v-2.7c1.3-0.3,2.4-0.8,3.2-1.7c0.8-0.9,1.7-2.7,2.7-5.4l10.4-29.4
		c0,0,0-0.1,0.1-0.3c0.3-0.8,0.5-1.3,0.5-1.7c0-0.3-0.1-0.6-0.2-0.8c-0.1-0.2-0.3-0.4-0.4-0.7H92.2z"/>
	<path fill="#E1251B" d="M274.9,52.1c0.3,0,3.9,8.6,14,21.2c0.6,0.5-0.6,1.1-0.7,1.1c0,0-9.2,9.7-18.1,3.6c0,0-5.6-3.2-5.6-11.5
		c0.3-6.2,4-9.3,4-9.3S274.5,52.2,274.9,52.1"/>
	<path fill="#E1251B" d="M276.5,80.6c-2.3,0-4.6-0.7-6.7-2.1c-0.5-0.3-5.9-3.7-5.9-12.1c0.3-6.4,4.1-9.6,4.3-9.7
		c6-5.2,6.4-5.2,6.6-5.2c0.5,0,0.6,0.2,1.5,1.8c1.6,3,5.5,10.1,13,19.6c0.2,0.1,0.3,0.5,0.3,0.7c0,0.5-0.6,0.9-0.9,1.2
		c-0.1,0-0.1,0-0.1,0C288.3,75.2,283,80.6,276.5,80.6 M274.7,52.9c-1,0.7-3.5,2.8-5.7,4.7c0,0-3.6,3-3.8,8.8c0,7.9,5.2,11,5.2,11
		h0.1c1.8,1.4,3.8,2,5.9,2c5.9,0,10.9-5,11.2-5.4c0.1-0.1,0.2-0.2,0.3-0.2c0-0.1,0.2-0.1,0.3-0.2c-7.6-9.4-11.5-16.5-13.1-19.6
		C275.1,53.5,274.9,53.2,274.7,52.9"/>
	<path fill="#F7F7F8" d="M725.8,39v46.7H271.8l-7.2-19.2L285,23.1l423.4,0C708.5,23.1,725.8,22,725.8,39"/>
	<path fill="#E1251B" d="M281.5,45.8c-4.3-8.4-3.5-12.4-3.5-12.4s-0.1-6.4,6.3-7.3c4.1-0.5,6.2,2.1,6.2,2.1s3.1,2.8,0.6,9.5
		C289.8,41.8,281.5,45.8,281.5,45.8"/>
	<path fill="#E1251B" d="M281.2,46.6l-0.3-0.6c-4.1-8-3.6-12.2-3.6-12.8c0-0.7,0.3-6.8,6.8-7.8c0.4-0.1,0.7-0.1,1.1-0.1
		c3.5,0,5.4,2.1,5.7,2.3c0.4,0.3,3.2,3.4,0.7,10.1c-1.4,4.2-9.6,8.3-9.9,8.5L281.2,46.6z M285.3,26.6c-0.3,0-0.6,0.1-0.9,0.1
		c-5.8,0.9-5.8,6.4-5.8,6.7v0v0.1c0,0-0.6,3.7,3.1,11.4c1.9-1,7.7-4.3,8.8-7.5v0c2.3-6.2-0.3-8.7-0.4-8.8l0-0.1
		C290,28.4,288.4,26.6,285.3,26.6"/>
	<path fill="#E1251B" d="M255.8,71.5c0-4.5,1.6-8.7,4.7-12.4c2.9-3.4,7.4-6.9,13.3-10.1c-1-2.2-1.6-4.4-2.1-6.3
		c-0.6-2.3-0.9-4.5-0.9-6.5c0-4.6,1.6-8.4,4.7-11.3c3-2.9,7.1-4.3,12-4.3c4,0,7.4,1.1,9.8,3.3c2.6,2.2,3.9,5.2,3.9,8.8
		c0,3.5-1.3,6.7-4.1,9.5c-2.3,2.5-5.8,4.8-10.5,7c1.7,3,3.6,5.9,5.5,8.8c1.8,2.7,3.8,5.3,5.9,7.9c2.2-3.1,3.9-5.9,5-8.3
		c1.3-2.6,1.9-5,1.9-7c0-1.6-0.6-2.1-0.8-2.2c-0.4-0.3-1.3-0.7-3.3-0.7h-1.3v-4.6h22.7v4.5l-1.3,0c-2,0.1-3.5,0.6-4.8,1.6
		c-0.9,0.7-2.6,2.5-5.1,7c-0.2,0.3-0.5,1-1,1.9c-2.6,4.7-5.2,9.1-8,12.8c2.4,2.4,4.6,4.1,6.8,5.4c2.3,1.3,4.5,2,6.6,2
		c1.1,0,2.2-0.3,3.3-1c1.2-0.6,2.5-1.7,4-3.3l0.8-0.8l3.7,2.3l-0.7,1.2c-2.4,3.8-4.9,6.6-7.5,8.5c-2.7,2-5.7,3-8.7,3
		c-2.6,0-5.4-0.8-8.2-2.4c-2.4-1.4-5-3.5-7.6-6.1c-3.1,2.6-6.3,4.8-9.4,6.1c-3.5,1.6-7.2,2.3-10.9,2.3c-5.6,0-10-1.5-13.3-4.5
		C257.5,80.7,255.8,76.6,255.8,71.5 M276.4,54.4c-2.9,1.7-5.1,3.6-6.6,5.7c-1.7,2.5-2.6,5-2.6,7.9c0,3.3,1.1,6.1,3.4,8.6
		c2.3,2.4,4.8,3.6,7.7,3.6c2.1,0,4.2-0.4,6.3-1.3c1.8-0.7,3.8-2,5.9-3.6c-2.6-3.1-5.1-6.4-7.5-9.9C280.6,61.9,278.4,58.2,276.4,54.4
		 M293.5,32.2c-0.3-2-1-3.6-1.9-4.6c-1-1-2.2-1.4-3.9-1.5c-2,0-3.5,0.6-4.6,1.9c-1.2,1.4-1.7,3.1-1.7,5.4c0,1.7,0.3,3.6,0.8,5.5
		c0.4,1.6,1.1,3.3,1.9,5c3.1-1.7,5.4-3.4,6.9-5.3C292.5,36.7,293.4,34.6,293.5,32.2"/>
	<path fill="#F7F7F8" d="M326.8,73.8l-1.6-1l-1.9-1.1l-1.5,1.6c-1.4,1.5-2.6,2.5-3.7,3.1c-0.9,0.5-1.8,0.7-2.6,0.7
		c-1.9,0-3.9-0.6-6-1.8c-1.8-1-3.7-2.5-5.6-4.4c2.6-3.5,5.1-7.6,7.4-12c0.5-0.9,0.8-1.6,1-1.9c2.5-4.5,4.1-6.1,4.7-6.6
		c1.1-0.8,2.4-1.3,4.1-1.3l2.5-0.1v-2.6v-1.9v-2.7h-2.6h-20h-1.5c2.1-2.7,3.2-5.7,3.2-9.1c0-4-1.5-7.3-4.3-9.8
		c-2.8-2.5-6.4-3.7-10.8-3.7c-5.2,0-9.6,1.6-12.9,4.7c-3.4,3.1-5.1,7.2-5.1,12.2c0,2.1,0.3,4.5,1,6.8c0.4,1.7,1,3.5,1.7,5.3
		c-5.6,3.2-9.8,6.5-12.7,9.8c-3.4,4-5.1,8.5-5.1,13.3c0,5.5,1.8,10,5.4,13.2c3.5,3.2,8.3,4.8,14.1,4.8c3.9,0,7.8-0.8,11.5-2.5
		c3-1.3,6-3.1,8.9-5.6c2.4,2.3,4.8,4.1,7,5.5c3,1.7,5.9,2.6,8.8,2.6c3.4,0,6.6-1.1,9.5-3.2c2.8-2,5.4-4.9,7.9-8.9l1.4-2.2
		L326.8,73.8z M300.9,49.1c1.9,0,2.4,0.4,2.5,0.5c0.3,0.2,0.3,0.8,0.3,1.1c0,1.8-0.6,4-1.8,6.5c-0.9,2-2.2,4.1-3.9,6.6
		c-1.6-2.1-3.2-4.3-4.7-6.5c-1.7-2.4-3.2-4.9-4.7-7.5c4.2-2.1,7.3-4.3,9.6-6.6c0.1,0,0.1,0,0.1-0.1v1.4v1.9v2.6H300.9z M318.2,84.1
		c-2.5,1.8-5.2,2.7-8,2.7c-2.4,0-4.9-0.7-7.5-2.2c-2.6-1.5-5.3-3.7-8.1-6.8c-3.4,3.1-6.7,5.3-10.1,6.8c-3.4,1.5-6.8,2.2-10.4,2.2
		c-5.2,0-9.4-1.4-12.4-4.1c-3-2.7-4.5-6.4-4.5-11.2c0-4.2,1.5-8.1,4.4-11.6c3-3.5,7.7-7,14-10.3c-1.1-2.6-2-5-2.5-7.2
		c-0.6-2.2-0.9-4.3-0.9-6.2c0-4.3,1.4-7.7,4.2-10.3c2.8-2.6,6.5-4,11.1-4c3.7,0,6.7,1,9,3c2.3,2,3.4,4.6,3.4,7.8
		c0,3.2-1.2,6.1-3.7,8.5c-2.5,2.6-6.3,5-11.4,7.2c2,3.6,4.1,6.9,6.3,10.1c2.2,3.3,4.5,6.4,7,9.4c2.8-3.8,4.8-7.1,6.2-9.9
		c1.3-2.8,2-5.4,2-7.6c0-1.5-0.5-2.6-1.3-3.3c-0.9-0.7-2.3-1-4.2-1v-1.9h20v1.9c-2.2,0.1-4,0.7-5.6,1.9c-1.5,1.1-3.3,3.6-5.4,7.4
		c-0.2,0.3-0.5,1-1,1.9c-2.8,5.2-5.6,9.7-8.6,13.6c2.7,2.9,5.4,5,7.9,6.5c2.5,1.4,4.9,2.1,7.3,2.1c1.3,0,2.7-0.3,4-1
		c1.3-0.7,2.7-1.9,4.3-3.6l1.6,1C323.1,79.6,320.7,82.3,318.2,84.1"/>
	<path fill="#F7F7F8" d="M283.4,45.8c3.8-1.9,6.6-4,8.5-6.3c1.9-2.2,2.8-4.7,2.9-7.3c-0.3-2.4-1.1-4.3-2.3-5.5
		c-1.2-1.2-2.8-1.8-4.8-1.8c-2.3,0-4.2,0.8-5.6,2.3c-1.4,1.5-2.1,3.7-2.1,6.3c0,1.9,0.3,3.8,0.9,5.8
		C281.4,41.4,282.2,43.5,283.4,45.8"/>
	<path fill="#F7F7F8" d="M277,52.6c-3.6,1.9-6.4,4.2-8.3,6.8c-1.9,2.7-2.8,5.5-2.8,8.6c0,3.6,1.3,6.8,3.8,9.4
		c2.5,2.8,5.4,4.1,8.6,4.1c2.3,0,4.5-0.5,6.8-1.4c2.3-1,4.7-2.5,7.3-4.6c-3-3.4-5.7-7-8.3-10.9C281.5,60.8,279.1,56.8,277,52.6
		 M284,77.6c-1.9,0.8-3.9,1.2-5.8,1.2c-2.5,0-4.7-1-6.7-3.2c-2-2.2-3-4.7-3-7.7c0-2.6,0.7-4.9,2.3-7.1c1.2-1.7,2.9-3.2,5.1-4.6
		c1.8,3.4,3.9,6.6,5.9,9.8c2.1,3.1,4.3,6.1,6.7,8.9C286.9,76.2,285.4,77,284,77.6"/>
	<path fill="#E1251B" d="M557.5,78.2v-4.6h0.3c3.9,0,6.9-1.6,9.1-4.7c2.2-3.1,3.3-7.4,3.3-13.1c0-5.8-1.2-10.5-3.7-14.2
		c-2.4-3.4-5.3-5.2-9-5.3v-2.5h0.3c2.6,0,5,0.5,7.2,1.3c2.3,1,4.4,2.4,6.2,4.3c2,2,3.5,4.3,4.5,6.7c1,2.5,1.5,5.3,1.5,8.4
		c0,4.6-1.1,8.7-3.4,12.3c-2.3,3.5-5.6,6.3-9.9,8.4c1.9,1.7,4.1,3.1,6.5,4.2c2.4,1.2,5.1,2,8.1,2.7v3.5H578c-2.1,0-4.2-0.3-6.4-0.8
		c-2.2-0.6-4.6-1.3-7.1-2.5c-1.3-0.5-2.8-1.4-4.6-2.6c-0.3-0.2-0.5-0.3-0.6-0.4C558.7,79,558.1,78.7,557.5,78.2 M591.4,37v-2.3h17
		V37c-2,0.3-3.3,0.9-4,1.8c-0.7,0.8-1,2.6-1,5.2v18.5c0,3.4,0.8,5.9,2.5,7.6c1.7,1.7,4.2,2.6,7.5,2.6c1.7,0,3.3-0.4,4.8-1
		c1.4-0.7,2.6-1.6,3.5-2.7c0.6-0.8,1.1-1.8,1.4-3c0.3-1.2,0.4-3.2,0.4-6V45.5c0-3.5-0.4-5.7-1.2-6.7c-0.8-1-2.4-1.6-4.6-1.8v-2.3
		H632V37c-2.1,0.3-3.5,1-4.4,2.1c-0.8,1.1-1.2,3.2-1.2,6.4v16.1c0,2.6-0.2,4.6-0.6,5.9c-0.4,1.3-1.1,2.6-2.1,3.7
		c-1.4,1.7-3.1,2.9-5.1,3.8c-2,0.8-4.4,1.3-7.1,1.3c-4.9,0-8.6-1.2-11-3.5c-2.4-2.3-3.6-5.9-3.6-10.7V44c0-2.6-0.4-4.5-1.1-5.3
		C595,37.8,593.6,37.3,591.4,37 M645.9,75.4v-2.5c2.2-0.3,3.7-0.8,4.5-1.6c0.8-0.8,1.2-2.3,1.2-4.8V43.2c0-2.4-0.4-4-1.2-4.8
		c-0.8-0.8-2.3-1.3-4.5-1.6v-2.1h32.3l0.3,8.6h-2.4c-0.6-2.3-1.8-3.9-3.5-4.9c-1.7-0.9-4.5-1.4-8.4-1.4h-4.1c-0.9,0-1.5,0.2-1.7,0.4
		c-0.2,0.2-0.3,0.7-0.3,1.6v13.5h4.6c3.5,0,5.8-0.4,7-1.2c1.2-0.7,1.7-2.2,1.8-4.3h2.5v13.7l-2.5-0.1c-0.1-2.1-0.6-3.5-1.8-4.3
		c-1.2-0.8-3.5-1.2-7-1.2H658V67c0,2.3,0.6,3.8,1.6,4.6c1.1,0.9,3,1.3,5.9,1.3c2.8,0,5.2-0.7,7.2-2c2-1.3,3.6-3.4,5-6.2l2.6,0.7
		l-2.5,9.9H645.9z M695.7,72.7v-9.7l2.2,0.3c0.8,3.4,2.1,5.9,3.7,7.6c1.7,1.8,3.7,2.6,6.1,2.6c1.9,0,3.5-0.5,4.7-1.8
		c1.3-1.3,1.9-2.9,1.9-4.7c0-1.6-0.5-3.1-1.5-4.5c-1-1.2-3.2-3.1-6.8-5.4c-4.4-2.9-7.1-5.2-8.3-6.8c-1.1-1.6-1.7-3.5-1.7-5.8
		c0-3.2,1.1-5.7,3.1-7.7c2.1-1.9,4.8-2.9,8.2-2.9c1.6,0,3.3,0.2,5.1,0.8c1.8,0.5,3.8,1.4,5.9,2.4v8.4h-2.4c-0.4-3-1.4-5.2-2.8-6.7
		c-1.4-1.5-3.4-2.3-5.8-2.3c-1.9,0-3.5,0.5-4.7,1.6c-1.2,1-1.8,2.4-1.8,4.1c0,1,0.1,1.8,0.5,2.6c0.3,0.8,0.8,1.4,1.5,2.1
		c1,1,3.1,2.5,6.4,4.6c1.7,1.2,3,2,3.9,2.6c2.5,1.7,4.3,3.4,5.3,5c1.1,1.5,1.6,3.3,1.6,5.3c0,3.6-1.2,6.5-3.5,8.6
		c-2.3,2.2-5.4,3.3-9.3,3.3c-2.1,0-4.1-0.2-6-0.9C699.4,74.8,697.5,73.9,695.7,72.7 M557.5,33.9v2.5h-0.6c-3.8,0-6.7,1.5-8.9,4.5
		c-2.1,3-3.2,7.3-3.2,12.6c0,6.2,1.2,11.1,3.6,14.7c2.3,3.5,5.3,5.3,9.1,5.4v4.6c-2.2-1.3-4.1-2.2-5.7-2.9l0-0.1
		c-0.2,0-0.4-0.2-0.7-0.3c-4.3-2-7.5-4.2-9.5-6.7c-1.3-1.5-2.2-3.5-2.9-5.7c-0.7-2.3-1-4.7-1-7.2c0-2.8,0.4-5.6,1.3-8.1
		c0.9-2.5,2.1-4.7,3.8-6.6c1.9-2.2,4.2-3.9,6.8-5.1C552,34.5,554.7,34,557.5,33.9 M503.1,58.8v-3.2h5.3l-5.3-15.3l-0.1,0.3v-6h4.3
		l11.6,32c0.7,2.2,1.5,3.7,2.3,4.6c0.8,0.9,1.8,1.5,2.9,1.6v2.5h-15.6v-2.5c1.6-0.2,2.7-0.5,3.3-0.9c0.6-0.4,0.9-1,0.9-2
		c0-0.4-0.1-1-0.2-1.5c-0.1-0.6-0.2-1.1-0.4-1.6l-2.8-8.1H503.1z M332.3,75.4l0-2.5c2.2-0.3,3.8-0.8,4.5-1.6
		c0.8-0.8,1.2-2.3,1.2-4.8V43.2c0-2.4-0.4-4-1.2-4.8c-0.7-0.8-2.3-1.3-4.5-1.6l0-2.1h32.3l0.3,8.6h-2.4c-0.6-2.4-1.8-3.9-3.5-4.9
		c-1.7-0.9-4.5-1.4-8.4-1.4h-4.1c-0.9,0-1.5,0.2-1.7,0.4c-0.2,0.2-0.3,0.7-0.3,1.6v13.5h4.6c3.5,0,5.8-0.4,7-1.2
		c1.2-0.7,1.8-2.2,1.8-4.3h2.5v13.7l-2.5-0.1c0-2.1-0.7-3.5-1.9-4.3c-1.2-0.8-3.5-1.2-6.9-1.2h-4.6V67c0,2.3,0.5,3.8,1.6,4.6
		c1.1,0.9,3,1.3,5.9,1.3c2.8,0,5.2-0.7,7.2-2c2-1.3,3.7-3.4,5-6.2l2.6,0.7l-2.5,9.9H332.3z M503.1,34.7v6l-5.4,15h5.4v3.2h-6.4
		l-2,6.9c-0.2,0.5-0.3,1.1-0.4,1.6c-0.1,0.5-0.1,1-0.1,1.5c0,1.2,0.3,2,1,2.6c0.6,0.6,1.7,1.1,3.3,1.5v2.5h-12.8v-2.5
		c1.3-0.3,2.3-0.8,3.1-1.6c0.8-0.8,1.6-2.5,2.5-5.1l9.9-28.1c0,0,0.1-0.1,0.2-0.2c0.2-0.8,0.4-1.3,0.4-1.7c0-0.3,0-0.5-0.1-0.8
		c-0.1-0.3-0.2-0.5-0.5-0.7H503.1z M379.2,75.4l0-2.5c1.6-0.2,3-0.9,3.9-2.2c0.9-1.3,1.7-3.6,2.2-6.8l3.5-20.3c0-0.1,0-0.2,0-0.3
		c0.1-0.9,0.2-1.4,0.2-1.8c0-1.4-0.4-2.5-1.1-3.3c-0.7-0.7-1.7-1.1-3.1-1.2v-2.3h10.8c0,1.3,0.2,2.6,0.5,4.1c0.3,1.4,1,3.4,2,6.1
		l7,18.7l7.5-20c0.7-1.6,1.1-3,1.3-4.2c0.3-1.2,0.4-2.3,0.4-3.3c0-0.2,0-0.4-0.1-0.7c0-0.3,0-0.4,0-0.8h11.3l0,2.3
		c-1.5,0.1-2.5,0.4-3.3,1c-0.7,0.6-1,1.5-1,2.8c0,0.6,0,1.1,0.1,1.8c0,0.6,0.1,1.3,0.2,2l3.3,22.1c0.4,2.3,0.9,3.9,1.6,4.7
		c0.8,0.9,1.9,1.4,3.6,1.5l0,2.5h-16.8v-2.5c1.9-0.3,3.2-0.7,4-1.4c0.8-0.7,1.1-1.8,1.1-3.3c0-0.2,0-0.6,0-1.1c0-0.4-0.1-1-0.2-1.9
		l-2.9-20.4l-9.3,24.8c-0.4,0.9-0.7,1.8-0.9,2.8c-0.2,0.9-0.4,1.9-0.5,2.9h-3c-0.2-1.5-0.5-2.9-0.9-4.4c-0.4-1.4-0.8-2.8-1.2-4
		l-8-21.8l-2.4,13.6c-0.3,1.7-0.5,3.2-0.7,4.7c-0.2,1.5-0.2,2.8-0.2,3.9c0,1.9,0.3,3.2,1,4c0.6,0.8,1.8,1.3,3.5,1.6v2.5H379.2z
		 M443.6,75.4v-2.5c2.2-0.3,3.7-0.8,4.4-1.6c0.7-0.8,1.1-2.3,1.1-4.8V43.6c0-2.6-0.4-4.4-1.1-5.3c-0.8-0.8-2.2-1.3-4.3-1.3v-2.3
		h15.4c5.7,0,9.9,0.9,12.7,2.6c2.7,1.8,4.1,4.5,4.1,8.1c0,3.4-1.3,6-3.9,8.2c-2.6,2.1-6,3.2-10.1,3.2c-1.6,0-2.6-0.2-3.1-0.4
		c-0.4-0.2-0.6-0.7-0.6-1.3c0-0.4,0.1-0.8,0.2-0.9c0.2-0.2,0.5-0.3,1.1-0.3c0.1,0,0.3,0,0.5,0c0.2,0,0.4,0,0.5,0
		c2.5,0,4.5-0.8,6-2.4c1.6-1.6,2.4-3.7,2.4-6.2c0-2.5-0.8-4.6-2.5-6c-1.6-1.5-3.9-2.2-6.8-2.2c-1.6,0-2.6,0.2-3.2,0.4
		c-0.5,0.3-0.7,0.9-0.7,2v1.5v25.4c0,2.4,0.4,4,1.2,4.8c0.8,0.8,2.3,1.3,4.6,1.6v2.5H443.6z"/>
	<path fill="#F7F7F8" d="M742.6,80c0,3.1-2.5,5.5-5.6,5.5c-3.1,0-5.6-2.5-5.6-5.5c0-3.1,2.5-5.6,5.6-5.6
		C740.1,74.4,742.6,76.9,742.6,80"/>
	<path fill="#E1251B" d="M734.6,83.5v-7.4h2.7c0.5,0,1,0.1,1.2,0.2c0.3,0.1,0.5,0.4,0.6,0.7c0.2,0.3,0.3,0.7,0.3,1.1
		c0,0.6-0.2,1.1-0.4,1.4c-0.3,0.3-0.7,0.5-1.3,0.7c0.2,0.2,0.4,0.2,0.5,0.4c0.2,0.2,0.5,0.6,0.7,0.9l1.1,2h-1l-0.8-1.6
		c-0.3-0.6-0.5-1-0.7-1.2c-0.2-0.2-0.3-0.4-0.5-0.4c-0.1-0.1-0.3-0.1-0.6-0.1h-1v3.3H734.6z M735.4,79.4h1.8c0.4,0,0.7-0.1,0.9-0.2
		c0.2-0.1,0.3-0.2,0.5-0.4c0.1-0.2,0.2-0.4,0.2-0.7c0-0.3-0.1-0.6-0.3-0.8c-0.2-0.2-0.5-0.3-1-0.3h-1.9V79.4z"/>
	<path fill="#F7F7F8" d="M475,98.9c1.1,0.7,2.1,1.8,2.8,3c0.7,1.2,1.1,2.8,1.1,4.6c0,1.6-0.3,2.9-1,4.1c-0.6,1.2-1.4,2.1-2.5,2.8
		c-1.1,0.8-2.3,1.3-3.6,1.7c-1.3,0.3-2.7,0.5-4.2,0.5h-9.4v-1c0.3,0,0.6,0,1.1-0.1c0.4-0.1,0.7-0.1,0.8-0.2c0.3-0.1,0.5-0.3,0.7-0.5
		c0.1-0.3,0.2-0.5,0.2-0.8V99.9c0-0.3,0-0.6-0.2-0.8c-0.1-0.3-0.3-0.4-0.7-0.6c-0.4-0.2-0.7-0.3-1.1-0.3c-0.4,0-0.6-0.1-0.9-0.1V97
		h10c1.1,0,2.2,0.2,3.4,0.4C472.7,97.7,473.8,98.2,475,98.9 M472.3,112.3c0.4-0.7,0.7-1.6,0.9-2.5c0.2-1,0.3-2.1,0.3-3.4
		c0-1.2-0.1-2.3-0.4-3.4c-0.3-1-0.7-1.9-1.2-2.6c-0.5-0.7-1.1-1.3-1.9-1.7c-0.8-0.4-1.6-0.6-2.6-0.6h-1c-0.4,0.1-0.7,0.1-0.9,0.1
		v14.2c0,0.3,0,0.6,0.1,0.9c0.1,0.2,0.2,0.5,0.4,0.6c0.2,0.2,0.5,0.3,0.8,0.4c0.3,0.1,0.7,0.2,1.2,0.2c0.9,0,1.8-0.2,2.5-0.6
		C471.3,113.6,471.9,113.1,472.3,112.3"/>
	<path fill="#F7F7F8" d="M502.6,101.8h-1c-0.3-0.7-0.7-1.4-1.3-2.1c-0.6-0.8-1.2-1.2-1.9-1.3c-0.3,0-0.6-0.1-1.1-0.2h-1.2h-2.7v7.2
		h1.9c0.5,0,0.9,0,1.3-0.2c0.4-0.1,0.8-0.3,1.1-0.7c0.2-0.2,0.4-0.6,0.6-1.1c0.2-0.5,0.3-0.9,0.4-1.3h1v7.8h-1
		c0-0.4-0.2-0.8-0.4-1.4c-0.2-0.6-0.4-0.9-0.6-1.1c-0.3-0.3-0.6-0.5-1-0.7c-0.4-0.1-0.8-0.2-1.3-0.2h-1.9v5.4c0,0.5,0,1,0.1,1.4
		c0.1,0.3,0.3,0.6,0.4,0.7c0.2,0.1,0.5,0.3,0.9,0.3c0.4,0.1,0.9,0.1,1.5,0.1h1.1c0.4,0,0.8-0.1,1.1-0.1c0.3,0,0.7-0.1,1-0.2
		c0.3-0.1,0.6-0.2,0.7-0.4c0.4-0.4,0.9-1.1,1.5-2c0.5-0.9,0.9-1.5,1-2h1l-0.4,5.8H486v-1c0.2,0,0.6,0,1-0.1c0.5,0,0.7-0.1,0.9-0.2
		c0.3-0.1,0.5-0.3,0.7-0.5c0.1-0.3,0.2-0.5,0.2-0.9V99.9c0-0.3,0-0.6-0.2-0.8c-0.1-0.2-0.3-0.4-0.7-0.6c-0.2-0.1-0.6-0.2-1-0.3
		c-0.4-0.1-0.7-0.1-0.9-0.1v-1h16.6V101.8z"/>
	<path fill="#F7F7F8" d="M533,116.2c-1.4,0-2.6-0.2-3.9-0.7c-1.2-0.4-2.3-1.1-3.1-1.9c-0.9-0.8-1.6-1.9-2.1-3.1
		c-0.5-1.3-0.7-2.6-0.7-4.1c0-1.4,0.2-2.8,0.7-4c0.5-1.2,1.2-2.4,2.1-3.2c0.9-0.9,2-1.6,3.2-2.1c1.3-0.5,2.6-0.7,4-0.7
		c1.1,0,2,0.2,2.8,0.4c0.9,0.2,1.6,0.5,2.2,0.8l0.8-0.7h1.1l0.1,6.8h-1.2c-0.6-2-1.4-3.6-2.3-4.6c-0.9-0.9-2-1.4-3.3-1.4
		c-1.7,0-2.9,0.7-3.8,2.2c-0.9,1.5-1.3,3.5-1.3,6.1c0,1.4,0.2,2.7,0.4,3.8c0.3,1.1,0.7,1.9,1.1,2.5c0.5,0.7,1.1,1.1,1.9,1.5
		c0.7,0.3,1.4,0.4,2.3,0.4c1.2,0,2.3-0.3,3.3-1c1-0.7,1.8-1.7,2.6-3l1.2,0.7c-0.4,0.8-0.8,1.5-1.3,2.1c-0.5,0.6-1.1,1.2-1.7,1.6
		c-0.7,0.5-1.5,0.8-2.3,1.1C535.1,116.1,534.1,116.2,533,116.2"/>
	<path fill="#F7F7F8" d="M565.1,99.1c0.9,0.9,1.6,1.9,2.2,3.1c0.6,1.2,0.8,2.6,0.8,4.1c0,1.4-0.2,2.6-0.7,3.8
		c-0.5,1.3-1.1,2.4-2,3.2c-0.9,0.9-2,1.6-3.2,2.1c-1.2,0.5-2.7,0.8-4.4,0.8c-1.4,0-2.7-0.2-3.9-0.7c-1.2-0.5-2.3-1.1-3.2-2
		c-0.9-0.8-1.6-1.8-2.2-3c-0.5-1.2-0.8-2.5-0.8-4c0-1.5,0.3-2.9,0.8-4.2c0.5-1.2,1.2-2.3,2.1-3.2c1-0.9,2-1.5,3.2-2
		c1.2-0.5,2.6-0.7,4-0.7c1.4,0,2.7,0.2,4,0.7C563.2,97.6,564.3,98.3,565.1,99.1 M561.8,112.5c0.4-0.8,0.6-1.7,0.9-2.7
		c0.1-1,0.2-2.1,0.2-3.4c0-1.1-0.1-2.1-0.2-3.2c-0.2-1-0.4-1.9-0.8-2.7c-0.4-0.8-0.9-1.5-1.5-1.9c-0.6-0.5-1.4-0.7-2.4-0.7
		c-1.6,0-2.8,0.8-3.6,2.3c-0.8,1.6-1.3,3.6-1.3,6.4c0,1.2,0.1,2.2,0.3,3.3c0.2,1,0.5,2,0.9,2.7c0.4,0.8,0.9,1.5,1.5,1.9
		c0.6,0.4,1.4,0.6,2.2,0.6c0.9,0,1.6-0.2,2.3-0.6C560.9,113.8,561.4,113.2,561.8,112.5"/>
	<path fill="#F7F7F8" d="M593,109.8l-0.4,6h-17.2v-1c0.3,0,0.6-0.1,1-0.1c0.4,0,0.7-0.1,0.8-0.1c0.3-0.2,0.5-0.3,0.7-0.5
		c0.1-0.3,0.2-0.5,0.2-0.9V99.9c0-0.3-0.1-0.6-0.2-0.8c-0.1-0.2-0.3-0.4-0.7-0.6c-0.3-0.1-0.6-0.2-1-0.3c-0.4-0.1-0.7-0.1-0.9-0.1
		V97h10.2V98c-0.3,0.1-0.6,0.1-1,0.1c-0.3,0-0.7,0.1-1,0.2c-0.3,0.1-0.5,0.3-0.7,0.5c-0.1,0.3-0.2,0.5-0.2,0.8V112
		c0,0.6,0.1,1.1,0.1,1.4c0.1,0.3,0.2,0.6,0.4,0.7c0.2,0.2,0.6,0.3,1,0.3c0.4,0.1,1,0.1,1.7,0.1c0.7,0,1.4-0.1,2-0.1
		c0.7-0.1,1.1-0.3,1.5-0.5c0.4-0.5,0.9-1.1,1.3-1.9c0.5-0.8,0.9-1.6,1.1-2.2H593z"/>
	<path fill="#F7F7F8" d="M616.6,99.1c0.9,0.9,1.6,1.9,2.2,3.1c0.5,1.2,0.8,2.6,0.8,4.1c0,1.4-0.2,2.6-0.7,3.8
		c-0.5,1.3-1.1,2.4-2,3.2c-0.9,0.9-2,1.6-3.2,2.1c-1.2,0.5-2.7,0.8-4.4,0.8c-1.3,0-2.7-0.2-3.9-0.7c-1.2-0.5-2.3-1.1-3.2-2
		c-0.9-0.8-1.6-1.8-2.2-3c-0.5-1.2-0.8-2.5-0.8-4c0-1.5,0.3-2.9,0.8-4.2c0.5-1.2,1.3-2.3,2.1-3.2c0.9-0.9,2-1.5,3.2-2
		c1.3-0.5,2.6-0.7,4-0.7c1.4,0,2.7,0.2,3.9,0.7C614.6,97.6,615.7,98.3,616.6,99.1 M613.2,112.5c0.4-0.8,0.7-1.7,0.9-2.7
		c0.2-1,0.2-2.1,0.2-3.4c0-1.1-0.1-2.1-0.2-3.2c-0.2-1-0.4-1.9-0.8-2.7c-0.3-0.8-0.9-1.5-1.5-1.9c-0.6-0.5-1.4-0.7-2.3-0.7
		c-1.6,0-2.8,0.8-3.6,2.3c-0.8,1.6-1.2,3.7-1.2,6.4c0,1.2,0.1,2.2,0.2,3.3c0.2,1,0.5,2,0.9,2.7c0.4,0.8,0.9,1.5,1.5,1.9
		c0.6,0.4,1.4,0.6,2.2,0.6c0.9,0,1.6-0.2,2.3-0.6C612.3,113.8,612.8,113.2,613.2,112.5"/>
	<path fill="#F7F7F8" d="M652.5,115.7h-10.2v-1c0.3,0,0.7-0.1,1.1-0.1c0.4,0,0.7-0.1,0.8-0.2c0.3-0.2,0.6-0.3,0.7-0.6
		c0.1-0.2,0.2-0.5,0.2-0.8V99l-6.5,16.4h-1.7c-0.1-0.3-0.3-0.8-0.6-1.7c-0.3-0.9-0.6-1.5-0.8-2.1l-4.7-12.8v11.4
		c0,1.1,0.1,1.9,0.2,2.5c0.2,0.6,0.4,0.9,0.7,1.3c0.2,0.2,0.6,0.3,1.2,0.5c0.6,0.2,1,0.3,1.2,0.3v1h-8v-1c0.2,0,0.6-0.1,1.1-0.2
		c0.5-0.1,0.9-0.3,1.2-0.6c0.3-0.2,0.6-0.6,0.7-1.2c0.1-0.6,0.1-1.4,0.1-2.5V101c0-0.5,0-1.1-0.2-1.4c-0.2-0.4-0.4-0.7-0.6-0.9
		c-0.3-0.3-0.7-0.4-1.1-0.5c-0.4-0.1-0.7-0.1-1.1-0.2v-1h8.6l4.6,12.3l3.9-10c0.1-0.4,0.3-0.9,0.3-1.4c0.2-0.4,0.2-0.8,0.2-1h8.3v1
		c-0.3,0-0.6,0.1-0.9,0.1c-0.3,0-0.6,0.1-0.9,0.2c-0.3,0.1-0.6,0.3-0.7,0.5c-0.1,0.3-0.2,0.5-0.2,0.8V113c0,0.3,0.1,0.6,0.2,0.8
		c0.1,0.2,0.3,0.3,0.7,0.5c0.2,0.1,0.5,0.2,0.8,0.2c0.4,0.1,0.7,0.1,1,0.1V115.7z"/>
	<path fill="#F7F7F8" d="M676.4,107.1c0.5,0.4,1,0.9,1.4,1.5c0.3,0.6,0.5,1.3,0.5,2.1c0,0.9-0.2,1.8-0.6,2.4c-0.4,0.6-1,1.1-1.7,1.6
		c-0.8,0.4-1.7,0.7-2.7,0.8c-1.1,0.2-2.3,0.2-3.6,0.2h-9.8v-1c0.3,0,0.6-0.1,1-0.1c0.4,0,0.7-0.1,0.9-0.2c0.3-0.1,0.5-0.3,0.7-0.5
		c0.1-0.2,0.2-0.5,0.2-0.9V99.9c0-0.3-0.1-0.6-0.2-0.8c-0.1-0.2-0.3-0.4-0.7-0.6c-0.2-0.1-0.6-0.2-1-0.3c-0.4,0-0.7-0.1-1-0.1V97
		H670c2.5,0,4.4,0.4,5.5,1.1c1.1,0.7,1.7,1.7,1.7,3.1c0,0.6-0.1,1.2-0.4,1.7c-0.3,0.5-0.6,0.9-1.1,1.2c-0.4,0.3-0.9,0.6-1.6,0.9
		c-0.6,0.2-1.2,0.4-1.9,0.6v0.3c0.7,0,1.4,0.2,2.1,0.5C675.2,106.5,675.8,106.8,676.4,107.1 M672.1,101.5c0-1-0.3-1.8-0.9-2.4
		c-0.6-0.6-1.5-0.9-2.7-0.9H668c-0.3,0.1-0.5,0.1-0.7,0.1v6.9h0.7c1.4,0,2.5-0.3,3.2-0.9C671.8,103.6,672.1,102.6,672.1,101.5
		 M673.1,110.5c0-1.3-0.4-2.3-1.2-3c-0.8-0.7-1.9-1-3.3-1h-0.7c-0.3,0-0.5,0-0.6,0v6.9c0.1,0.3,0.4,0.6,0.8,0.8
		c0.4,0.2,0.9,0.3,1.5,0.3c1,0,1.9-0.4,2.5-1.1C672.7,112.7,673.1,111.8,673.1,110.5"/>
	<path fill="#F7F7F8" d="M696,115.7h-10.4v-1c0.2,0,0.6,0,1-0.1c0.5-0.1,0.8-0.1,1-0.2c0.3-0.1,0.5-0.3,0.7-0.5
		c0.1-0.3,0.2-0.5,0.2-0.8V99.9c0-0.3-0.1-0.6-0.2-0.8c-0.1-0.2-0.4-0.4-0.7-0.6c-0.2-0.1-0.5-0.1-0.9-0.3c-0.5,0-0.8-0.1-1.1-0.2
		v-1H696v1c-0.3,0.1-0.6,0.1-1,0.1c-0.4,0-0.7,0.1-1,0.2c-0.4,0.1-0.6,0.3-0.7,0.5c-0.2,0.3-0.2,0.5-0.2,0.8V113
		c0,0.3,0,0.6,0.2,0.8c0.1,0.2,0.4,0.3,0.7,0.5c0.2,0.1,0.5,0.2,0.9,0.2c0.4,0.1,0.8,0.1,1.1,0.1V115.7z"/>
	<path fill="#F7F7F8" d="M723.4,115.7h-10.2v-1c0.5,0,1-0.1,1.7-0.3c0.6-0.1,0.9-0.3,0.9-0.5c0-0.1,0-0.2,0-0.3c0-0.1,0-0.2-0.1-0.3
		l-1.6-3.9h-6.4c-0.2,0.4-0.3,0.8-0.5,1.3c-0.2,0.5-0.3,0.9-0.5,1.3c-0.2,0.5-0.2,0.9-0.3,1.1c0,0.2,0,0.4,0,0.5
		c0,0.3,0.2,0.5,0.6,0.7c0.4,0.2,1.1,0.4,2.1,0.4v1h-7.6v-1c0.3,0,0.6-0.1,1-0.1c0.4-0.1,0.6-0.2,0.9-0.3c0.4-0.2,0.6-0.5,0.9-0.8
		c0.3-0.3,0.5-0.7,0.6-1.1c1-2.4,2.1-4.9,3.1-7.4c1-2.5,2.2-5.2,3.4-8.2h2.6c1.7,4.3,3,7.6,4.1,10c1,2.5,1.8,4.5,2.5,6.1
		c0.1,0.3,0.3,0.5,0.5,0.7c0.1,0.2,0.4,0.4,0.8,0.6c0.2,0.2,0.5,0.3,0.8,0.4c0.3,0.1,0.6,0.1,0.8,0.1V115.7z M713.6,108.1l-2.7-6.8
		l-2.7,6.8L713.6,108.1z"/>
</g>
</svg>
